<svg width="600" height="300" xmlns="http://www.w3.org/2000/svg"><style>.price-line { fill: none; stroke: #2196F3; stroke-width: 3; }.price-area { fill: rgba(33, 150, 243, 0.1); }.schedule-bar { fill: rgba(255, 152, 0, 0.4); stroke: #FF9800; stroke-width: 2; }.axis { stroke: #666; stroke-width: 1; }.grid { stroke: #eee; stroke-width: 0.5; }.label { font-family: Arial, sans-serif; font-size: 11px; fill: #333; }.title { font-family: Arial, sans-serif; font-size: 14px; font-weight: bold; fill: #333; }.legend { font-family: Arial, sans-serif; font-size: 10px; fill: #666; }.current-time { stroke: #f44336; stroke-width: 2; stroke-dasharray: 5,5; }</style><text x="300.0" y="20" text-anchor="middle" class="title">Tibber Price Chart with Scheduler</text><line x1="50" y1="80.0" x2="550" y2="80.0" class="grid"/><text x="45" y="84.0" text-anchor="end" class="label">0.45€</text><line x1="50" y1="120.0" x2="550" y2="120.0" class="grid"/><text x="45" y="124.0" text-anchor="end" class="label">0.38€</text><line x1="50" y1="160.0" x2="550" y2="160.0" class="grid"/><text x="45" y="164.0" text-anchor="end" class="label">0.32€</text><line x1="50" y1="200.0" x2="550" y2="200.0" class="grid"/><text x="45" y="204.0" text-anchor="end" class="label">0.25€</text><line x1="50" y1="240.0" x2="550" y2="240.0" class="grid"/><text x="45" y="244.0" text-anchor="end" class="label">0.18€</text><line x1="50.0" y1="80" x2="50.0" y2="250" class="grid"/><text x="50.0" y="265" text-anchor="middle" class="label">21:00</text><line x1="136.95652173913044" y1="80" x2="136.95652173913044" y2="250" class="grid"/><text x="136.95652173913044" y="265" text-anchor="middle" class="label">01:00</text><line x1="223.91304347826087" y1="80" x2="223.91304347826087" y2="250" class="grid"/><text x="223.91304347826087" y="265" text-anchor="middle" class="label">05:00</text><line x1="310.8695652173913" y1="80" x2="310.8695652173913" y2="250" class="grid"/><text x="310.8695652173913" y="265" text-anchor="middle" class="label">09:00</text><line x1="397.82608695652175" y1="80" x2="397.82608695652175" y2="250" class="grid"/><text x="397.82608695652175" y="265" text-anchor="middle" class="label">13:00</text><line x1="484.7826086956522" y1="80" x2="484.7826086956522" y2="250" class="grid"/><text x="484.7826086956522" y="265" text-anchor="middle" class="label">17:00</text><line x1="50" y1="250" x2="550" y2="250" class="axis"/><line x1="50" y1="80" x2="50" y2="250" class="axis"/><polygon points="50,250 50.0,198.5185185185185 71.73913043478261,210.37037037037035 93.47826086956522,222.22222222222223 115.21739130434783,228.14814814814812 136.95652173913044,234.07407407407408 158.69565217391306,240.0 180.43478260869566,216.2962962962963 202.17391304347825,180.74074074074073 223.91304347826087,139.25925925925927 245.65217391304347,157.03703703703704 267.3913043478261,174.81481481481484 289.1304347826087,192.5925925925926 310.8695652173913,162.96296296296296 332.60869565217394,151.11111111111111 354.3478260869565,168.88888888888889 376.0869565217391,180.74074074074073 397.82608695652175,186.66666666666666 419.5652173913044,157.03703703703704 441.30434782608694,121.48148148148148 463.04347826086956,97.7777777777778 484.7826086956522,80.0 506.5217391304348,103.70370370370372 528.2608695652174,139.25925925925927 550.0,174.81481481481484 550,250" class="price-area"/><polyline points="50.0,198.5185185185185 71.73913043478261,210.37037037037035 93.47826086956522,222.22222222222223 115.21739130434783,228.14814814814812 136.95652173913044,234.07407407407408 158.69565217391306,240.0 180.43478260869566,216.2962962962963 202.17391304347825,180.74074074074073 223.91304347826087,139.25925925925927 245.65217391304347,157.03703703703704 267.3913043478261,174.81481481481484 289.1304347826087,192.5925925925926 310.8695652173913,162.96296296296296 332.60869565217394,151.11111111111111 354.3478260869565,168.88888888888889 376.0869565217391,180.74074074074073 397.82608695652175,186.66666666666666 419.5652173913044,157.03703703703704 441.30434782608694,121.48148148148148 463.04347826086956,97.7777777777778 484.7826086956522,80.0 506.5217391304348,103.70370370370372 528.2608695652174,139.25925925925927 550.0,174.81481481481484" class="price-line"/><rect x="115.21739130434783" y="80" width="43.47826086956523" height="160" class="schedule-bar"/><text x="136.95652173913044" y="70" text-anchor="middle" class="legend">Scheduled: 03:00-05:00 (Avg: 0.195€)</text><line x1="506.5217391304348" y1="80" x2="506.5217391304348" y2="250" class="current-time"/><text x="511.5217391304348" y="95" class="legend">Now</text><line x1="50" y1="275" x2="70" y2="275" class="price-line"/><text x="75" y="279" class="legend">Electricity Price (€/kWh)</text><rect x="200" y="270" width="15" height="10" class="schedule-bar"/><text x="220" y="279" class="legend">Scheduled Window</text><line x1="330" y1="275" x2="350" y2="275" class="current-time"/><text x="355" y="279" class="legend">Current Time</text></svg>